<svg width="24" height="24" viewBox="0 0 24 24" fill="none" xmlns="http://www.w3.org/2000/svg">
<path fill-rule="evenodd" clip-rule="evenodd" d="M22 6.16667C22 8.46785 20.1345 10.3333 17.8333 10.3333C15.5321 10.3333 13.6667 8.46785 13.6667 6.16667C13.6667 3.86548 15.5321 2 17.8333 2C20.1345 2 22 3.86548 22 6.16667ZM10.3333 17.8333C10.3333 20.1345 8.46785 22 6.16667 22C3.86548 22 2 20.1345 2 17.8333C2 15.5321 3.86548 13.6667 6.16667 13.6667C8.46785 13.6667 10.3333 15.5321 10.3333 17.8333ZM10.3333 8.68575V3.73438C10.3333 3.23467 9.92938 2.83073 9.42967 2.83073H9.40468C8.62179 2.89736 7.46828 3.26382 6.70621 3.67608C6.56879 3.75104 6.48134 3.89263 6.48134 4.04671V9.83926C6.48134 10.1349 6.78117 10.339 7.05185 10.2265C7.82641 9.90173 8.78836 9.61856 9.47131 9.52694L9.6004 9.51028C10.0043 9.46031 10.3333 9.08969 10.3333 8.68575ZM5.63128 3.67608C4.86921 3.26382 3.7157 2.89736 2.93281 2.83073H2.90365C2.40394 2.83073 2 3.23467 2 3.73438V8.68575C2 9.08969 2.32898 9.46031 2.73292 9.51028L2.86201 9.52694C3.54496 9.61856 4.50691 9.90173 5.28147 10.2265C5.55216 10.339 5.85199 10.1349 5.85199 9.83926V4.04671C5.85199 3.88846 5.76871 3.75104 5.63128 3.67608ZM16.8773 13.6988C17.1251 13.6666 17.4373 13.6667 17.8117 13.6667H17.855C18.2294 13.6667 18.5415 13.6666 18.7894 13.6988C19.051 13.7327 19.2871 13.8072 19.4769 13.9901C19.6667 14.1731 19.744 14.4007 19.7792 14.6528C19.8031 14.8241 19.8098 15.2335 19.8118 15.5846C20.6544 15.6111 21.1602 15.7059 21.5118 16.0448C22 16.5153 22 17.2726 22 18.7871C22 20.3017 22 21.059 21.5118 21.5295C21.0237 22 20.238 22 18.6667 22H17C15.4286 22 14.643 22 14.1548 21.5295C13.6667 21.059 13.6667 20.3017 13.6667 18.7871C13.6667 17.2726 13.6667 16.5153 14.1548 16.0448C14.5064 15.7059 15.0123 15.6111 15.8549 15.5846C15.8568 15.2335 15.8636 14.8241 15.8875 14.6528C15.9226 14.4007 16 14.1731 16.1898 13.9901C16.3796 13.8072 16.6157 13.7327 16.8773 13.6988ZM19.1598 14.7331C19.1788 14.8691 19.1847 15.235 19.1866 15.5751C19.0235 15.5743 18.8505 15.5743 18.6667 15.5743H17C16.8162 15.5743 16.6431 15.5743 16.48 15.5751C16.4819 15.235 16.4879 14.8691 16.5069 14.7331C16.5327 14.5478 16.5774 14.4685 16.6317 14.4161C16.686 14.3638 16.7683 14.3207 16.9606 14.2958C17.1618 14.2697 17.4317 14.2691 17.8333 14.2691C18.235 14.2691 18.5048 14.2697 18.7061 14.2958C18.8984 14.3207 18.9807 14.3638 19.035 14.4161C19.0893 14.4685 19.1339 14.5478 19.1598 14.7331ZM18.1458 17.1807C18.1458 17.0144 18.0059 16.8795 17.8333 16.8795C17.6608 16.8795 17.5208 17.0144 17.5208 17.1807V17.1848C17.0672 17.295 16.6875 17.6398 16.6875 18.1178C16.6875 18.7029 17.2563 19.0884 17.8333 19.0884C18.1768 19.0884 18.3542 19.3022 18.3542 19.4565C18.3542 19.6107 18.1768 19.8246 17.8333 19.8246C17.4899 19.8246 17.3125 19.6107 17.3125 19.4565C17.3125 19.2902 17.1726 19.1553 17 19.1553C16.8274 19.1553 16.6875 19.2902 16.6875 19.4565C16.6875 19.9345 17.0672 20.2793 17.5208 20.3895V20.3936C17.5208 20.5599 17.6608 20.6948 17.8333 20.6948C18.0059 20.6948 18.1458 20.5599 18.1458 20.3936V20.3895C18.5995 20.2793 18.9792 19.9345 18.9792 19.4565C18.9792 18.8714 18.4104 18.4859 17.8333 18.4859C17.4899 18.4859 17.3125 18.272 17.3125 18.1178C17.3125 17.9636 17.4899 17.7497 17.8333 17.7497C18.1768 17.7497 18.3542 17.9636 18.3542 18.1178C18.3542 18.2841 18.4941 18.419 18.6667 18.419C18.8393 18.419 18.9792 18.2841 18.9792 18.1178C18.9792 17.6398 18.5995 17.295 18.1458 17.1848V17.1807Z" fill="white"/>
</svg>
